# xmcd CD database file
#
# Track frame offsets:
#	150
#	25847
#	46284
#	61825
#	78366
#	97669
#	117858
#	135536
#	158285
#	177955
#	199366
#
# Disc length: 2921 seconds
#
# Revision: 0
# Processed by: cddbd v1.5.1PL0 Copyright (c) Steve Scherf et al.
# Submitted via: CDex 1.51
#
DISCID=7d0b670b
DTITLE=Bodo Andriamanantena - Mamiko
DYEAR=2000
DGENRE=Blues
TTITLE0=Mamiko
TTITLE1=Tsy vandivandy
TTITLE2=Satria
TTITLE3=Modia
TTITLE4=Safidy
TTITLE5=Ataoko akory
TTITLE6=Embona
TTITLE7=Fenofeno
TTITLE8=Ianao
TTITLE9=Valim-babena
TTITLE10=Mamiko (version acoustique)
EXTD=YEAR: 2000
EXTT0=
EXTT1=
EXTT2=
EXTT3=
EXTT4=
EXTT5=
EXTT6=
EXTT7=
EXTT8=
EXTT9=
EXTT10=
PLAYORDER=
